# xmcd
#
# Track frame offsets:
# 150
# 18747
# 40257
#
# Disc length: 779 seconds
#
#
# Revision: 0
# Processed by: cddbd v1.5.1PL0 Copyright (c) Steve Scherf et al.
# Submitted via: FreeRIP 2.942 
#
DISCID=1f030903
DTITLE=IMMACULATE FOOLS
DYEAR=1990
DGENRE=Country
TTITLE0=Kevin and Paul Weatherill - Sad
TTITLE1=Kevin Weatherill - Will we rise
TTITLE2=Kevin Weatherill - All in a day
EXTD=
EXTT0=
EXTT1=
EXTT2=
PLAYORDER=
